<mxfile host="app.diagrams.net" agent="Mozilla/5.0 (X11; Linux x86_64) AppleWebKit/537.36 (KHTML, like Gecko) Chrome/138.0.0.0 Safari/537.36" version="28.0.4">
  <diagram name="Page-1" id="LsFNkQHadCKPyYGrLLGv">
    <mxGraphModel dx="466" dy="921" grid="1" gridSize="10" guides="1" tooltips="1" connect="1" arrows="1" fold="1" page="1" pageScale="1" pageWidth="827" pageHeight="1169" math="0" shadow="0">
      <root>
        <mxCell id="0" />
        <mxCell id="1" parent="0" />
        <mxCell id="ojRSn3kfGoJms9IKaOHa-4" style="edgeStyle=orthogonalEdgeStyle;rounded=0;orthogonalLoop=1;jettySize=auto;html=1;exitX=1;exitY=0.5;exitDx=0;exitDy=0;entryX=0;entryY=0.5;entryDx=0;entryDy=0;" edge="1" parent="1" source="ojRSn3kfGoJms9IKaOHa-1" target="ojRSn3kfGoJms9IKaOHa-2">
          <mxGeometry relative="1" as="geometry" />
        </mxCell>
        <mxCell id="ojRSn3kfGoJms9IKaOHa-1" value="Patient arrivals" style="rounded=1;whiteSpace=wrap;html=1;fillColor=#f5f5f5;strokeColor=#666666;fontColor=#333333;" vertex="1" parent="1">
          <mxGeometry x="190" y="380" width="110" height="30" as="geometry" />
        </mxCell>
        <mxCell id="ojRSn3kfGoJms9IKaOHa-6" style="edgeStyle=orthogonalEdgeStyle;rounded=0;orthogonalLoop=1;jettySize=auto;html=1;exitX=1;exitY=0.5;exitDx=0;exitDy=0;entryX=0;entryY=0.5;entryDx=0;entryDy=0;" edge="1" parent="1" source="ojRSn3kfGoJms9IKaOHa-2" target="ojRSn3kfGoJms9IKaOHa-5">
          <mxGeometry relative="1" as="geometry" />
        </mxCell>
        <mxCell id="ojRSn3kfGoJms9IKaOHa-2" value="Nurse visit" style="rounded=1;whiteSpace=wrap;html=1;fillColor=#f5f5f5;fontColor=#333333;strokeColor=#666666;" vertex="1" parent="1">
          <mxGeometry x="350" y="380" width="90" height="30" as="geometry" />
        </mxCell>
        <mxCell id="ojRSn3kfGoJms9IKaOHa-5" value="Departure" style="rounded=1;whiteSpace=wrap;html=1;fillColor=#f5f5f5;fontColor=#333333;strokeColor=#666666;" vertex="1" parent="1">
          <mxGeometry x="490" y="380" width="90" height="30" as="geometry" />
        </mxCell>
      </root>
    </mxGraphModel>
  </diagram>
</mxfile>
